
<svg version="1.1" id="Layer_1" xmlns="http://www.w3.org/2000/svg" xmlns:xlink="http://www.w3.org/1999/xlink" x="0px" y="0px"
	 width="100%" viewBox="0 0 438 382" enable-background="new 0 0 438 382" xml:space="preserve">
<path fill="#FCFCFC" opacity="1.000000" stroke="none" 
	d="
M250.000000,383.000000 
	C166.666672,383.000000 83.833336,383.000000 1.000000,383.000000 
	C1.000000,255.666672 1.000000,128.333328 1.000000,1.000000 
	C147.000000,1.000000 293.000000,1.000000 439.000000,1.000000 
	C439.000000,128.333328 439.000000,255.666672 439.000000,383.000000 
	C376.166656,383.000000 313.333344,383.000000 250.000000,383.000000 
M118.952377,301.463898 
	C118.966644,301.948975 118.980919,302.434021 118.380669,303.259796 
	C119.405998,305.547577 119.978165,308.221008 121.538017,310.053894 
	C127.174210,316.676727 132.840790,323.326569 139.060120,329.387238 
	C147.285278,337.402557 155.404510,345.775543 167.371719,349.813416 
	C171.116150,350.751038 174.860596,351.688690 178.859116,352.918243 
	C178.859116,352.918243 179.245972,352.907593 179.457016,353.344360 
	C180.062180,353.282440 180.667328,353.220490 181.950043,353.093903 
	C186.134079,348.055786 190.916214,343.394348 194.376389,337.900330 
	C201.361649,326.809235 207.628616,315.265778 214.760529,302.924835 
	C195.737198,302.924835 177.870895,302.924835 160.027664,302.105316 
	C160.066818,301.560181 160.105972,301.015015 161.047043,300.653564 
	C177.866486,300.645325 194.686996,300.720428 211.503860,300.507660 
	C213.304245,300.484924 215.768143,299.232788 216.727982,297.767426 
	C218.645523,294.839935 219.733109,291.368835 221.213455,288.008698 
	C162.640976,288.008698 104.457016,288.008698 46.211838,288.008698 
	C46.211838,292.416595 46.211838,296.486145 46.211838,300.737823 
	C70.666023,300.737823 94.783096,300.737823 118.952377,301.463898 
M260.718536,224.244843 
	C253.225143,219.252945 245.731766,214.261047 238.005173,209.113785 
	C245.938385,205.200684 254.014526,201.217102 262.743835,196.911331 
	C221.129074,179.318069 180.521301,162.150528 139.882660,144.969940 
	C139.882660,157.949890 139.882660,170.339737 139.882660,183.241562 
	C149.384827,183.241562 158.475113,183.241562 167.637177,183.241562 
	C167.637177,194.368088 167.637177,204.967499 167.637177,216.137695 
	C158.234818,216.137695 149.031448,216.137695 139.933411,216.137695 
	C139.933411,228.578064 139.933411,240.441147 139.933411,253.370056 
	C171.007156,239.110794 201.308838,225.205811 230.353043,211.877884 
	C239.166763,219.016479 247.271698,225.581009 255.403610,232.167389 
	C257.344482,230.229630 259.222931,228.354187 261.748779,226.178635 
	C261.526428,225.719894 261.304047,225.261154 260.718536,224.244843 
M263.104034,137.067871 
	C263.111267,133.402863 263.189087,129.736359 263.111603,126.073143 
	C262.926941,117.342659 260.952057,115.039436 252.232468,114.791840 
	C236.586594,114.347565 220.930786,114.088943 205.278595,114.061707 
	C153.634705,113.971832 101.990562,114.018150 50.346512,114.025543 
	C48.926350,114.025749 47.506207,114.177498 46.251755,114.249115 
	C46.251755,122.680275 46.251755,130.621628 46.251755,139.056076 
	C60.866093,139.056076 75.251785,139.056076 89.539780,139.056076 
	C89.539780,178.750992 89.539780,217.944824 89.539780,257.530365 
	C74.894363,257.530365 60.618767,257.530365 46.364655,257.530365 
	C46.364655,266.483246 46.364655,275.036896 46.364655,283.852509 
	C64.352684,283.852509 81.991768,283.863739 99.630829,283.850250 
	C139.446518,283.819733 179.262222,283.760010 219.077896,283.772888 
	C222.103119,283.773895 224.416183,283.415039 225.975967,280.223267 
	C229.461655,273.090576 233.352203,266.155701 237.693039,258.954285 
	C237.540558,258.502991 237.388092,258.051697 236.414429,257.402893 
	C190.981552,257.402893 145.548676,257.402893 99.864769,257.402893 
	C99.864769,217.699310 99.864769,178.494400 99.864769,138.935059 
	C101.115875,138.935059 102.084595,138.935013 103.053307,138.935089 
	C146.206024,138.938187 189.358749,138.946594 232.511459,138.940414 
	C242.333267,138.939011 252.155090,138.887024 262.575623,138.985046 
	C262.704651,138.654572 262.833679,138.324097 263.104034,137.067871 
M388.556885,211.472412 
	C392.259827,196.020309 397.044800,180.730743 399.396698,165.075668 
	C402.456421,144.708801 395.496185,127.580429 378.291901,115.182251 
	C362.297180,103.655762 343.355316,99.399986 325.226685,93.075966 
	C322.841370,92.243874 320.851257,90.223518 318.743958,88.664513 
	C316.399414,86.929993 314.130249,85.093628 311.828247,83.301598 
	C313.183746,107.931763 301.614624,128.656754 297.573944,150.790955 
	C295.073975,150.998825 293.304199,151.145981 290.770935,151.356628 
	C292.009857,158.201172 293.179810,164.664719 294.313873,170.929962 
	C292.045044,172.046539 290.604462,172.755508 288.172180,173.952530 
	C290.954132,178.724854 293.651459,183.191864 296.177094,187.753937 
	C297.394745,189.953369 298.891083,192.250763 299.213318,194.644836 
	C300.070038,201.010010 300.357391,207.451797 300.850891,213.609924 
	C310.576508,215.443771 319.678741,217.160095 328.780975,218.876419 
	C328.780487,219.481384 328.779968,220.086349 328.779449,220.691315 
	C326.048950,223.042282 322.867889,225.044357 320.706238,227.835815 
	C318.215271,231.052567 315.525970,231.498047 311.995605,230.600708 
	C305.072174,228.840866 298.156311,227.029022 291.177582,225.513870 
	C276.895233,222.412994 264.845978,225.750275 256.407410,238.402573 
	C250.448135,247.337540 244.194122,256.128448 238.949265,265.476044 
	C229.074234,283.075775 219.848999,301.039642 210.318085,318.833099 
	C207.596786,323.913544 204.713348,328.906921 201.974045,333.977936 
	C196.927322,343.320496 191.347549,352.194794 181.751953,358.339935 
	C232.190750,381.331787 282.200317,381.336487 331.432861,355.902252 
	C335.656708,357.696564 339.845856,359.221100 343.805267,361.204315 
	C357.560669,368.094177 372.235168,368.690735 387.133881,367.736816 
	C388.683289,367.637604 390.595978,366.998718 391.617676,365.923645 
	C396.572144,360.710388 401.737885,355.599121 405.978363,349.827026 
	C414.365692,338.410339 414.009125,326.343994 406.674744,314.523895 
	C402.677734,308.082367 398.124786,301.985809 394.330994,296.472473 
	C395.574249,291.074677 397.087372,286.324188 397.688477,281.460968 
	C398.550903,274.483948 396.520660,268.235901 390.717743,263.813812 
	C388.033600,261.768402 384.920715,260.295532 382.083344,258.439056 
	C377.617493,255.517059 373.220184,252.490265 367.800049,248.838242 
	C368.278656,243.128204 368.516998,236.155746 369.504059,229.290924 
	C372.340912,209.561493 375.760437,189.913391 378.426483,170.162521 
	C381.403137,148.110336 374.932098,129.715775 354.626648,118.660446 
	C344.242493,113.006767 332.779266,109.334976 321.840759,104.782845 
	C322.368866,103.971481 323.431732,102.338463 324.566833,100.594490 
	C338.515930,104.707489 352.025635,108.743767 364.842346,115.414772 
	C384.069305,125.422249 393.606903,143.152771 391.607758,162.960739 
	C389.946625,179.419601 386.077545,195.655640 382.890076,212.763397 
	C380.862122,225.776810 378.834167,238.790222 376.806213,251.803650 
	C377.306580,251.992599 377.806946,252.181549 378.307343,252.370499 
	C378.908386,251.388046 379.814819,250.475922 380.059967,249.411514 
	C381.435852,243.437149 382.646637,237.424866 383.924744,231.427856 
	C385.303101,224.960526 386.693481,218.495743 388.556885,211.472412 
M182.500107,110.865387 
	C205.331100,110.971382 228.162766,111.005348 250.992828,111.213753 
	C262.404999,111.317940 267.045013,116.149185 267.028412,127.451187 
	C266.994629,150.449402 266.932159,173.447571 266.891754,196.445786 
	C266.876373,205.197891 266.889252,213.950012 266.889252,222.176010 
	C273.116608,221.343292 278.955017,220.562576 284.850067,219.774292 
	C283.363342,215.249969 281.529205,210.796112 280.445129,206.166626 
	C276.572998,189.630814 275.944519,172.952377 278.872681,156.171539 
	C283.704498,128.481430 291.510010,102.029251 309.442291,79.512405 
	C311.578369,76.830200 313.145477,76.340981 315.994263,77.475845 
	C326.445099,81.639153 337.121155,85.293030 347.362305,89.914574 
	C366.412048,98.511215 385.140259,107.735977 399.730225,123.414413 
	C410.099426,134.557175 416.177582,147.518509 413.149536,162.704407 
	C411.039856,173.284622 406.967865,183.584473 402.843353,193.628036 
	C395.132568,212.404602 388.679657,231.461746 386.426636,251.732529 
	C386.291809,252.945435 386.812958,254.657166 387.664062,255.478485 
	C390.982056,258.680176 394.556091,261.616547 397.961823,264.587860 
	C407.084015,247.738998 411.265167,211.653000 408.596069,192.486755 
	C408.212982,189.735901 408.872894,186.622787 409.820160,183.950241 
	C411.622375,178.865540 414.839691,174.163254 415.958466,168.976288 
	C420.564209,147.622620 413.496613,130.163849 397.023499,116.222565 
	C393.097137,112.899643 388.253296,110.198875 385.443085,106.105507 
	C376.951111,93.736046 366.118073,83.770561 354.427612,74.797585 
	C329.282471,55.497517 300.931946,44.012615 269.190979,40.828407 
	C237.671295,37.666401 208.000626,43.773983 179.994919,57.958359 
	C161.361237,67.395981 145.080063,80.187447 131.142838,95.836250 
	C127.057953,100.422783 123.042061,105.070755 117.971703,110.858040 
	C140.201904,110.858040 160.851013,110.858040 182.500107,110.865387 
z"/>
<path fill="#020202" opacity="1.000000" stroke="none" 
	d="
M383.186554,211.990387 
	C386.077545,195.655640 389.946625,179.419601 391.607758,162.960739 
	C393.606903,143.152771 384.069305,125.422249 364.842346,115.414772 
	C352.025635,108.743767 338.515930,104.707489 324.566833,100.594490 
	C323.431732,102.338463 322.368866,103.971481 321.840759,104.782845 
	C332.779266,109.334976 344.242493,113.006767 354.626648,118.660446 
	C374.932098,129.715775 381.403137,148.110336 378.426483,170.162521 
	C375.760437,189.913391 372.340912,209.561493 369.504059,229.290924 
	C368.516998,236.155746 368.278656,243.128204 367.800049,248.838242 
	C373.220184,252.490265 377.617493,255.517059 382.083344,258.439056 
	C384.920715,260.295532 388.033600,261.768402 390.717743,263.813812 
	C396.520660,268.235901 398.550903,274.483948 397.688477,281.460968 
	C397.087372,286.324188 395.574249,291.074677 394.330994,296.472473 
	C398.124786,301.985809 402.677734,308.082367 406.674744,314.523895 
	C414.009125,326.343994 414.365692,338.410339 405.978363,349.827026 
	C401.737885,355.599121 396.572144,360.710388 391.617676,365.923645 
	C390.595978,366.998718 388.683289,367.637604 387.133881,367.736816 
	C372.235168,368.690735 357.560669,368.094177 343.805267,361.204315 
	C339.845856,359.221100 335.656708,357.696564 331.432861,355.902252 
	C282.200317,381.336487 232.190750,381.331787 181.751953,358.339935 
	C191.347549,352.194794 196.927322,343.320496 201.974045,333.977936 
	C204.713348,328.906921 207.596786,323.913544 210.318085,318.833099 
	C219.848999,301.039642 229.074234,283.075775 238.949265,265.476044 
	C244.194122,256.128448 250.448135,247.337540 256.407410,238.402573 
	C264.845978,225.750275 276.895233,222.412994 291.177582,225.513870 
	C298.156311,227.029022 305.072174,228.840866 311.995605,230.600708 
	C315.525970,231.498047 318.215271,231.052567 320.706238,227.835815 
	C322.867889,225.044357 326.048950,223.042282 328.779449,220.691315 
	C328.779968,220.086349 328.780487,219.481384 328.780975,218.876419 
	C319.678741,217.160095 310.576508,215.443771 300.850891,213.609924 
	C300.357391,207.451797 300.070038,201.010010 299.213318,194.644836 
	C298.891083,192.250763 297.394745,189.953369 296.177094,187.753937 
	C293.651459,183.191864 290.954132,178.724854 288.172180,173.952530 
	C290.604462,172.755508 292.045044,172.046539 294.313873,170.929962 
	C293.179810,164.664719 292.009857,158.201172 290.770935,151.356628 
	C293.304199,151.145981 295.073975,150.998825 297.573944,150.790955 
	C301.614624,128.656754 313.183746,107.931763 311.828247,83.301598 
	C314.130249,85.093628 316.399414,86.929993 318.743958,88.664513 
	C320.851257,90.223518 322.841370,92.243874 325.226685,93.075966 
	C343.355316,99.399986 362.297180,103.655762 378.291901,115.182251 
	C395.496185,127.580429 402.456421,144.708801 399.396698,165.075668 
	C397.044800,180.730743 392.259827,196.020309 387.909973,211.743896 
	C385.904205,212.007065 384.545380,211.998718 383.186554,211.990387 
z"/>
<path fill="#040404" opacity="1.000000" stroke="none" 
	d="
M182.000107,110.861710 
	C160.851013,110.858040 140.201904,110.858040 117.971703,110.858040 
	C123.042061,105.070755 127.057953,100.422783 131.142838,95.836250 
	C145.080063,80.187447 161.361237,67.395981 179.994919,57.958359 
	C208.000626,43.773983 237.671295,37.666401 269.190979,40.828407 
	C300.931946,44.012615 329.282471,55.497517 354.427612,74.797585 
	C366.118073,83.770561 376.951111,93.736046 385.443085,106.105507 
	C388.253296,110.198875 393.097137,112.899643 397.023499,116.222565 
	C413.496613,130.163849 420.564209,147.622620 415.958466,168.976288 
	C414.839691,174.163254 411.622375,178.865540 409.820160,183.950241 
	C408.872894,186.622787 408.212982,189.735901 408.596069,192.486755 
	C411.265167,211.653000 407.084015,247.738998 397.961823,264.587860 
	C394.556091,261.616547 390.982056,258.680176 387.664062,255.478485 
	C386.812958,254.657166 386.291809,252.945435 386.426636,251.732529 
	C388.679657,231.461746 395.132568,212.404602 402.843353,193.628036 
	C406.967865,183.584473 411.039856,173.284622 413.149536,162.704407 
	C416.177582,147.518509 410.099426,134.557175 399.730225,123.414413 
	C385.140259,107.735977 366.412048,98.511215 347.362305,89.914574 
	C337.121155,85.293030 326.445099,81.639153 315.994263,77.475845 
	C313.145477,76.340981 311.578369,76.830200 309.442291,79.512405 
	C291.510010,102.029251 283.704498,128.481430 278.872681,156.171539 
	C275.944519,172.952377 276.572998,189.630814 280.445129,206.166626 
	C281.529205,210.796112 283.363342,215.249969 284.850067,219.774292 
	C278.955017,220.562576 273.116608,221.343292 266.889252,222.176010 
	C266.889252,213.950012 266.876373,205.197891 266.891754,196.445786 
	C266.932159,173.447571 266.994629,150.449402 267.028412,127.451187 
	C267.045013,116.149185 262.404999,111.317940 250.992828,111.213753 
	C228.162766,111.005348 205.331100,110.971382 182.000107,110.861710 
z"/>
<path fill="#030303" opacity="1.000000" stroke="none" 
	d="
M261.976898,138.858307 
	C252.155090,138.887024 242.333267,138.939011 232.511459,138.940414 
	C189.358749,138.946594 146.206024,138.938187 103.053307,138.935089 
	C102.084595,138.935013 101.115875,138.935059 99.864769,138.935059 
	C99.864769,178.494400 99.864769,217.699310 99.864769,257.402893 
	C145.548676,257.402893 190.981552,257.402893 236.769974,257.885010 
	C237.109634,258.624847 237.093735,258.882538 237.077835,259.140259 
	C233.352203,266.155701 229.461655,273.090576 225.975967,280.223267 
	C224.416183,283.415039 222.103119,283.773895 219.077896,283.772888 
	C179.262222,283.760010 139.446518,283.819733 99.630829,283.850250 
	C81.991768,283.863739 64.352684,283.852509 46.364655,283.852509 
	C46.364655,275.036896 46.364655,266.483246 46.364655,257.530365 
	C60.618767,257.530365 74.894363,257.530365 89.539780,257.530365 
	C89.539780,217.944824 89.539780,178.750992 89.539780,139.056076 
	C75.251785,139.056076 60.866093,139.056076 46.251755,139.056076 
	C46.251755,130.621628 46.251755,122.680275 46.251755,114.249115 
	C47.506207,114.177498 48.926350,114.025749 50.346512,114.025543 
	C101.990562,114.018150 153.634705,113.971832 205.278595,114.061707 
	C220.930786,114.088943 236.586594,114.347565 252.232468,114.791840 
	C260.952057,115.039436 262.926941,117.342659 263.111603,126.073143 
	C263.189087,129.736359 263.111267,133.402863 262.832642,137.629211 
	C262.312836,138.366196 262.118042,138.588791 261.976898,138.858307 
M244.496216,126.952393 
	C244.930008,126.985458 245.363785,127.018517 246.011368,127.873199 
	C250.002487,128.304703 253.993607,128.736221 258.413330,129.214081 
	C257.974335,126.331978 257.689972,124.465042 257.240448,121.513702 
	C253.181839,122.401260 249.564194,123.192390 245.296326,124.013306 
	C244.862183,124.009872 244.428024,124.006447 243.315750,123.638199 
	C240.293808,123.343765 237.271851,123.049332 234.249908,122.754890 
	C234.374756,124.580208 233.788406,127.287689 234.755966,128.067703 
	C237.826263,130.542923 241.124237,129.831406 244.496216,126.952393 
M71.026764,277.446655 
	C72.284378,277.603333 73.542000,277.760010 74.799622,277.916656 
	C74.819588,277.663757 74.839554,277.410828 74.859528,277.157898 
	C73.748466,277.157898 72.637413,277.157898 71.026764,277.446655 
M54.516983,277.893524 
	C54.985176,277.804504 55.453369,277.715485 55.921562,277.626465 
	C55.875229,277.462494 55.828899,277.298523 55.782570,277.134552 
	C55.173191,277.384949 54.563816,277.635315 54.516983,277.893524 
z"/>
<path fill="#040404" opacity="1.000000" stroke="none" 
	d="
M261.101379,226.478729 
	C259.222931,228.354187 257.344482,230.229630 255.403610,232.167389 
	C247.271698,225.581009 239.166763,219.016479 230.353043,211.877884 
	C201.308838,225.205811 171.007156,239.110794 139.933411,253.370056 
	C139.933411,240.441147 139.933411,228.578064 139.933411,216.137695 
	C149.031448,216.137695 158.234818,216.137695 167.637177,216.137695 
	C167.637177,204.967499 167.637177,194.368088 167.637177,183.241562 
	C158.475113,183.241562 149.384827,183.241562 139.882660,183.241562 
	C139.882660,170.339737 139.882660,157.949890 139.882660,144.969940 
	C180.521301,162.150528 221.129074,179.318069 262.743835,196.911331 
	C254.014526,201.217102 245.938385,205.200684 238.005173,209.113785 
	C245.731766,214.261047 253.225143,219.252945 260.883606,224.942963 
	C261.066223,225.920303 261.083801,226.199509 261.101379,226.478729 
z"/>
<path fill="#040404" opacity="1.000000" stroke="none" 
	d="
M166.953018,349.199829 
	C155.404510,345.775543 147.285278,337.402557 139.060120,329.387238 
	C132.840790,323.326569 127.174210,316.676727 121.538017,310.053894 
	C119.978165,308.221008 119.405998,305.547577 119.148796,303.182495 
	C133.279480,303.045105 146.642029,302.984985 160.004578,302.924835 
	C177.870895,302.924835 195.737198,302.924835 214.760529,302.924835 
	C207.628616,315.265778 201.361649,326.809235 194.376389,337.900330 
	C190.916214,343.394348 186.134079,348.055786 181.289490,352.988922 
	C180.167953,352.891815 179.706955,352.899689 179.245972,352.907593 
	C179.245972,352.907593 178.859116,352.918243 178.836548,352.370087 
	C180.404266,348.518677 179.477356,346.612701 175.711380,347.094513 
	C172.750610,347.473358 169.869507,348.474915 166.953018,349.199829 
z"/>
<path fill="#090909" opacity="1.000000" stroke="none" 
	d="
M118.900177,300.737823 
	C94.783096,300.737823 70.666023,300.737823 46.211838,300.737823 
	C46.211838,296.486145 46.211838,292.416595 46.211838,288.008698 
	C104.457016,288.008698 162.640976,288.008698 221.213455,288.008698 
	C219.733109,291.368835 218.645523,294.839935 216.727982,297.767426 
	C215.768143,299.232788 213.304245,300.484924 211.503860,300.507660 
	C194.686996,300.720428 177.866486,300.645325 160.429779,300.366089 
	C159.484055,299.709076 159.155579,299.339478 159.169693,298.829376 
	C159.673996,296.792786 159.835693,294.896698 160.079178,292.669495 
	C160.100861,291.890686 160.040787,291.442993 160.082565,290.560852 
	C156.459839,289.802216 152.735275,289.478058 148.547455,289.073669 
	C138.715515,289.043335 129.346817,289.093231 119.693230,289.112793 
	C119.281158,289.386566 119.153976,289.690674 118.916832,290.323853 
	C118.884834,291.099884 118.962799,291.546906 119.000191,292.307861 
	C119.280624,293.085419 119.601631,293.548981 119.841110,294.390442 
	C119.473114,296.758179 119.186638,298.747986 118.900177,300.737823 
z"/>
<path fill="#F1F1F0" opacity="1.000000" stroke="none" 
	d="
M118.926270,301.100861 
	C119.186638,298.747986 119.473114,296.758179 120.248268,294.395752 
	C122.991180,294.211487 125.249207,294.586670 127.498695,294.541046 
	C130.332947,294.483551 133.160233,294.082397 136.211716,294.144470 
	C137.954468,294.630798 139.476044,294.802185 140.720123,295.273132 
	C137.297546,295.715973 134.152435,295.859222 130.639618,296.002136 
	C129.183624,296.612671 128.095322,297.223480 126.729713,298.092377 
	C127.664299,298.913605 128.885956,299.982849 130.086502,299.959595 
	C139.479279,299.778015 148.867981,299.386780 158.402374,299.051147 
	C158.546814,299.042084 158.827103,298.969910 158.827103,298.969910 
	C159.155579,299.339478 159.484055,299.709076 159.978821,300.274261 
	C160.105972,301.015015 160.066818,301.560181 160.016113,302.515076 
	C146.642029,302.984985 133.279480,303.045105 119.456055,303.012146 
	C118.980919,302.434021 118.966644,301.948975 118.926270,301.100861 
z"/>
<path fill="#0D0D0D" opacity="1.000000" stroke="none" 
	d="
M383.038330,212.376892 
	C384.545380,211.998718 385.904205,212.007065 387.670837,212.022614 
	C386.693481,218.495743 385.303101,224.960526 383.924744,231.427856 
	C382.646637,237.424866 381.435852,243.437149 380.059967,249.411514 
	C379.814819,250.475922 378.908386,251.388046 378.307343,252.370499 
	C377.806946,252.181549 377.306580,251.992599 376.806213,251.803650 
	C378.834167,238.790222 380.862122,225.776810 383.038330,212.376892 
z"/>
<path fill="#283234" opacity="1.000000" stroke="none" 
	d="
M167.162369,349.506622 
	C169.869507,348.474915 172.750610,347.473358 175.711380,347.094513 
	C179.477356,346.612701 180.404266,348.518677 178.709503,352.224121 
	C174.860596,351.688690 171.116150,350.751038 167.162369,349.506622 
z"/>
<path fill="#283234" opacity="1.000000" stroke="none" 
	d="
M179.351501,353.125977 
	C179.706955,352.899689 180.167953,352.891815 180.950714,353.021240 
	C180.667328,353.220490 180.062180,353.282440 179.351501,353.125977 
z"/>
<path fill="#2F2F2F" opacity="1.000000" stroke="none" 
	d="
M237.385437,259.047272 
	C237.093735,258.882538 237.109634,258.624847 237.180573,257.983765 
	C237.388092,258.051697 237.540558,258.502991 237.385437,259.047272 
z"/>
<path fill="#0F0D0D" opacity="1.000000" stroke="none" 
	d="
M261.425049,226.328674 
	C261.083801,226.199509 261.066223,225.920303 261.065186,225.221756 
	C261.304047,225.261154 261.526428,225.719894 261.425049,226.328674 
z"/>
<path fill="#2F2F2F" opacity="1.000000" stroke="none" 
	d="
M262.276245,138.921677 
	C262.118042,138.588791 262.312836,138.366196 262.761993,138.092072 
	C262.833679,138.324097 262.704651,138.654572 262.276245,138.921677 
z"/>
<path fill="#DBDBDB" opacity="1.000000" stroke="none" 
	d="
M245.946533,123.983521 
	C249.564194,123.192390 253.181839,122.401260 257.240448,121.513702 
	C257.689972,124.465042 257.974335,126.331978 258.413330,129.214081 
	C253.993607,128.736221 250.002487,128.304703 245.989594,127.085449 
	C245.960709,125.526306 245.953629,124.754913 245.946533,123.983521 
z"/>
<path fill="#F6F6F6" opacity="1.000000" stroke="none" 
	d="
M243.843964,126.915512 
	C241.124237,129.831406 237.826263,130.542923 234.755966,128.067703 
	C233.788406,127.287689 234.374756,124.580208 234.249908,122.754890 
	C237.271851,123.049332 240.293808,123.343765 243.676392,124.186478 
	C243.972672,125.461678 243.908325,126.188599 243.843964,126.915512 
z"/>
<path fill="#323232" opacity="1.000000" stroke="none" 
	d="
M71.276566,277.302277 
	C72.637413,277.157898 73.748466,277.157898 74.859528,277.157898 
	C74.839554,277.410828 74.819588,277.663757 74.799622,277.916656 
	C73.542000,277.760010 72.284378,277.603333 71.276566,277.302277 
z"/>
<path fill="#2F2F2F" opacity="1.000000" stroke="none" 
	d="
M244.170090,126.933952 
	C243.908325,126.188599 243.972672,125.461678 244.015457,124.368889 
	C244.428024,124.006447 244.862183,124.009872 245.621429,123.998413 
	C245.953629,124.754913 245.960709,125.526306 245.882690,126.674637 
	C245.363785,127.018517 244.930008,126.985458 244.170090,126.933952 
z"/>
<path fill="#323232" opacity="1.000000" stroke="none" 
	d="
M54.235710,277.889587 
	C54.563816,277.635315 55.173191,277.384949 55.782570,277.134552 
	C55.828899,277.298523 55.875229,277.462494 55.921562,277.626465 
	C55.453369,277.715485 54.985176,277.804504 54.235710,277.889587 
z"/>
<path fill="#E8E8E6" opacity="1.000000" stroke="none" 
	d="
M131.007324,296.002441 
	C134.152435,295.859222 137.297546,295.715973 140.720154,294.950317 
	C141.003220,293.897247 141.008820,293.466583 141.481659,293.024170 
	C147.965057,293.008545 153.981232,293.004608 159.997406,293.000671 
	C159.835693,294.896698 159.673996,296.792786 159.169693,298.829376 
	C158.827103,298.969910 158.546814,299.042084 158.117676,298.704071 
	C148.784119,298.170044 139.879730,297.974030 130.982056,297.482239 
	C130.994949,296.791779 131.001144,296.397125 131.007324,296.002441 
M157.194672,294.534271 
	C156.454910,294.425964 155.715134,294.317657 154.975372,294.209351 
	C154.963531,294.439941 154.951675,294.670532 154.939835,294.901123 
	C155.556824,294.901123 156.173828,294.901123 157.194672,294.534271 
z"/>
<path fill="#D7D7D6" opacity="1.000000" stroke="none" 
	d="
M119.040764,291.993927 
	C118.962799,291.546906 118.884834,291.099884 119.116653,290.231934 
	C119.687584,289.652191 119.871475,289.429565 119.978119,289.143127 
	C129.346817,289.093231 138.715515,289.043335 148.542221,289.385132 
	C149.000977,290.192383 149.001709,290.607941 148.702332,291.313293 
	C138.615067,291.733337 128.827911,291.863647 119.040764,291.993927 
z"/>
<path fill="#C1C1C0" opacity="1.000000" stroke="none" 
	d="
M119.000191,292.307861 
	C128.827911,291.863647 138.615067,291.733337 149.159760,291.308167 
	C153.271759,291.007294 156.626236,291.001282 159.980713,290.995300 
	C160.040787,291.442993 160.100861,291.890686 160.079178,292.669525 
	C153.981232,293.004608 147.965057,293.008545 141.098358,293.009857 
	C138.828751,293.281311 137.409637,293.555420 135.990524,293.829529 
	C133.160233,294.082397 130.332947,294.483551 127.498695,294.541046 
	C125.249207,294.586670 122.991180,294.211487 120.329788,294.017883 
	C119.601631,293.548981 119.280624,293.085419 119.000191,292.307861 
z"/>
<path fill="#E3E3E3" opacity="1.000000" stroke="none" 
	d="
M160.082565,290.560852 
	C156.626236,291.001282 153.271759,291.007294 149.459869,291.018402 
	C149.001709,290.607941 149.000977,290.192383 149.005463,289.465332 
	C152.735275,289.478058 156.459839,289.802216 160.082565,290.560852 
z"/>
<path fill="#E3E3E3" opacity="1.000000" stroke="none" 
	d="
M119.693230,289.112793 
	C119.871475,289.429565 119.687584,289.652191 119.226624,289.902893 
	C119.153976,289.690674 119.281158,289.386566 119.693230,289.112793 
z"/>
<path fill="#939392" opacity="1.000000" stroke="none" 
	d="
M130.975327,297.778015 
	C139.879730,297.974030 148.784119,298.170044 157.973236,298.713135 
	C148.867981,299.386780 139.479279,299.778015 130.086502,299.959595 
	C128.885956,299.982849 127.664299,298.913605 127.125580,298.137054 
	C128.857605,297.875092 129.916473,297.826569 130.975327,297.778015 
z"/>
<path fill="#DEDDDD" opacity="1.000000" stroke="none" 
	d="
M136.211716,294.144470 
	C137.409637,293.555420 138.828751,293.281311 140.631134,293.021545 
	C141.008820,293.466583 141.003220,293.897247 140.997620,294.650757 
	C139.476044,294.802185 137.954468,294.630798 136.211716,294.144470 
z"/>
<path fill="#F1F1F1" opacity="1.000000" stroke="none" 
	d="
M130.982056,297.482239 
	C129.916473,297.826569 128.857605,297.875092 127.402878,297.878967 
	C128.095322,297.223480 129.183624,296.612671 130.639618,296.002136 
	C131.001144,296.397125 130.994949,296.791779 130.982056,297.482239 
z"/>
<path fill="#DEDDDD" opacity="1.000000" stroke="none" 
	d="
M156.992737,294.717712 
	C156.173828,294.901123 155.556824,294.901123 154.939835,294.901123 
	C154.951675,294.670532 154.963531,294.439941 154.975372,294.209351 
	C155.715134,294.317657 156.454910,294.425964 156.992737,294.717712 
z"/>
</svg>